# File created by Blade
# Date/Time:  Wed Jan 21 15:23:43 2015
# Frame Rate: 120.000 fps
#------------------------------------------------------
:FULLY-SPECIFIED
:DEGREES
498
root 31.368780 29.512905 -19.345774 -170.245432 -0.620291 -167.044740
Spine 0.579074 2.126293 18.214091
Head -0.796955 2.832789 -2.758581
LeftShoulder -10.600272 -22.840978 -5.332055
LeftArm -21.028572 30.777223 -85.877470
LeftForeArm 18.843785 -0.000000 27.727797
LeftHand -2.436498 -0.000000 -2.787135
LeftHandThumb1 -26.253704 0.000000 33.147579
RightShoulder -2.303444 -13.023005 2.372870
RightArm 19.746819 -23.668528 54.793066
RightForeArm -29.578629 -0.000000 42.455592
RightHand 0.346655 0.000000 7.586777
RightHandThumb1 -24.326973 -0.000000 -32.862282
LeftUpLeg -5.498216 30.307982 44.247807
LeftLeg -1.728068 -0.000000 0.000000
LeftFoot -10.995896 13.830755 -16.082882
LeftToeBase 38.206045 -0.000000 -0.000000
RightUpLeg -44.409926 -23.673622 16.952363
RightLeg 64.227460 -0.000000 -0.000000
RightFoot -47.917582 -21.836564 22.617669
RightToeBase 23.196971 -0.000000 -0.000000
499
root 31.244917 29.599606 -19.331606 -170.357282 -0.507399 -167.118451
Spine 0.682416 2.176311 18.142897
Head -0.813955 2.813072 -2.784418
LeftShoulder -10.567098 -22.955274 -5.354661
LeftArm -21.043025 30.531688 -85.899850
LeftForeArm 19.323960 -0.000000 27.596043
LeftHand -2.319040 -0.000000 -3.181877
LeftHandThumb1 -26.253704 0.000000 33.147579
RightShoulder -2.259960 -12.990829 2.346377
RightArm 19.743121 -23.734317 54.818298
RightForeArm -29.341457 -0.000000 42.191807
RightHand 0.291427 -0.000000 7.438053
RightHandThumb1 -24.326973 -0.000000 -32.862282
LeftUpLeg -5.398564 30.106255 43.995802
LeftLeg -1.634801 -0.000000 0.000000
LeftFoot -11.138963 13.954959 -16.095040
LeftToeBase 37.965829 -0.000000 -0.000000
RightUpLeg -44.036548 -23.730190 16.598057
RightLeg 63.672984 -0.000000 -0.000000
RightFoot -47.471919 -21.756244 22.519935
RightToeBase 23.296549 -0.000000 -0.000000
500
root 31.123647 29.692404 -19.318436 -170.363360 -0.454280 -167.100157
Spine 0.623313 2.238703 18.208197
Head -0.772101 2.750479 -2.886170
LeftShoulder -10.599896 -22.894908 -5.397003
LeftArm -20.982529 30.628390 -85.978359
LeftForeArm 19.392253 0.000000 27.574905
LeftHand -2.399949 0.000000 -3.219179
LeftHandThumb1 -26.253704 0.000000 33.147579
RightShoulder -2.276629 -13.066277 2.320976
RightArm 19.807977 -23.738644 54.797996
RightForeArm -29.391433 -0.000000 41.960480
RightHand 0.252933 -0.000000 7.631752
RightHandThumb1 -24.326973 -0.000000 -32.862282
LeftUpLeg -5.420781 29.902306 43.792659
LeftLeg -1.546897 -0.000000 0.000000
LeftFoot -11.278062 14.118220 -16.148937
LeftToeBase 37.795047 -0.000000 -0.000000
RightUpLeg -43.739812 -23.798275 16.397143
RightLeg 63.036612 -0.000000 -0.000000
RightFoot -46.994952 -21.692110 22.430254
RightToeBase 23.363237 -0.000000 -0.000000
501
root 30.999296 29.785138 -19.303842 -170.421605 -0.394856 -167.137718
Spine 0.651277 2.275721 18.196171
Head -0.807374 2.702264 -2.976299
LeftShoulder -10.630627 -22.838805 -5.429027
LeftArm -20.882004 30.743947 -86.002606
LeftForeArm 19.404939 -0.000000 27.515178
LeftHand -2.314989 -0.000000 -3.181047
LeftHandThumb1 -26.253704 0.000000 33.147579
RightShoulder -2.199295 -12.965359 2.277213
RightArm 19.637663 -23.692482 54.976243
RightForeArm -29.436638 0.000000 41.725021
RightHand 0.216304 -0.000000 7.456577
RightHandThumb1 -24.326973 -0.000000 -32.862282
LeftUpLeg -5.417088 29.729968 43.531491
LeftLeg -1.450236 -0.000000 0.000000
LeftFoot -11.407749 14.239245 -16.157671
LeftToeBase 37.651890 -0.000000 -0.000000
RightUpLeg -43.396856 -23.867309 16.114367
RightLeg 62.412902 -0.000000 -0.000000
RightFoot -46.528312 -21.645960 22.346625
RightToeBase 23.453556 -0.000000 -0.000000
502
root 30.869032 29.881816 -19.293671 -170.413955 -0.340504 -167.151448
Spine 0.555669 2.346630 18.209070
Head -0.754310 2.643880 -3.016994
LeftShoulder -10.625197 -22.830227 -5.453179
LeftArm -20.849801 30.581836 -86.045378
LeftForeArm 19.517638 -0.000000 27.379556
LeftHand -2.270991 -0.000000 -3.147395
LeftHandThumb1 -26.253704 0.000000 33.147579
RightShoulder -2.264091 -13.033239 2.302818
RightArm 19.717813 -23.690492 54.946352
RightForeArm -29.425637 -0.000000 41.457316
RightHand 0.272319 0.000000 7.827405
RightHandThumb1 -24.326973 -0.000000 -32.862282
LeftUpLeg -5.436761 29.578953 43.263840
LeftLeg -1.400611 -0.000000 0.000000
LeftFoot -11.555173 14.358557 -16.153585
LeftToeBase 37.595473 -0.000000 -0.000000
RightUpLeg -43.095265 -23.913988 15.873621
RightLeg 61.746532 -0.000000 -0.000000
RightFoot -46.053012 -21.592353 22.302539
RightToeBase 23.556434 -0.000000 -0.000000
503
root 30.739682 29.977998 -19.278961 -170.505162 -0.271287 -167.194872
Spine 0.643425 2.277578 18.190270
Head -0.833768 2.747600 -3.099483
LeftShoulder -10.703952 -22.824340 -5.450497
LeftArm -20.765584 30.550277 -86.058085
LeftForeArm 19.508165 -0.000000 27.274245
LeftHand -2.185228 -0.000000 -3.056680
LeftHandThumb1 -26.253704 0.000000 33.147579
RightShoulder -2.140166 -12.952325 2.247766
RightArm 19.634285 -23.683857 55.092208
RightForeArm -29.581114 -0.000000 41.215245
RightHand 0.211040 -0.000000 7.557250
RightHandThumb1 -24.326973 -0.000000 -32.862282
LeftUpLeg -5.404339 29.412974 42.994418
LeftLeg -1.298244 -0.000000 0.000000
LeftFoot -11.695987 14.421806 -16.112032
LeftToeBase 37.524521 -0.000000 -0.000000
RightUpLeg -42.693429 -23.951067 15.556799
RightLeg 61.084331 -0.000000 -0.000000
RightFoot -45.584304 -21.572337 22.237552
RightToeBase 23.711433 -0.000000 -0.000000
504
root 30.612643 30.076387 -19.261231 -170.556016 -0.234566 -167.176844
Spine 0.694797 2.244850 18.233506
Head -0.966386 2.717462 -3.155228
LeftShoulder -10.786131 -22.877123 -5.415656
LeftArm -20.748712 30.570186 -86.134023
LeftForeArm 19.457765 -0.000000 27.205096
LeftHand -2.147863 -0.000000 -3.220725
LeftHandThumb1 -26.253704 0.000000 33.147579
RightShoulder -2.099667 -12.852940 2.193256
RightArm 19.581069 -23.722751 55.238083
RightForeArm -29.448238 -0.000000 40.951029
RightHand 0.182928 -0.000000 7.605725
RightHandThumb1 -24.326973 -0.000000 -32.862282
LeftUpLeg -5.451923 29.266312 42.766787
LeftLeg -1.159823 -0.000000 0.000000
LeftFoot -11.825738 14.480320 -16.096000
LeftToeBase 37.372753 -0.000000 -0.000000
RightUpLeg -42.329396 -24.015128 15.338252
RightLeg 60.389231 -0.000000 -0.000000
RightFoot -45.073275 -21.518452 22.201065
RightToeBase 23.787036 -0.000000 -0.000000
505
root 30.476198 30.176027 -19.243969 -170.622808 -0.210397 -167.214117
Spine 0.760691 2.195356 18.231260
Head -1.098734 2.690100 -3.230561
LeftShoulder -10.803694 -22.937049 -5.414595
LeftArm -20.755011 30.546177 -86.210190
LeftForeArm 19.448819 -0.000000 27.120346
LeftHand -2.169266 -0.000000 -3.212676
LeftHandThumb1 -26.253704 0.000000 33.147579
RightShoulder -2.097121 -12.753119 2.163935
RightArm 19.598452 -23.774519 55.316115
RightForeArm -29.442796 -0.000000 40.651296
RightHand 0.177316 -0.000000 7.755299
RightHandThumb1 -24.326973 -0.000000 -32.862282
LeftUpLeg -5.490524 29.071836 42.464349
LeftLeg -1.056164 -0.000000 0.000000
LeftFoot -11.956456 14.606263 -16.075920
LeftToeBase 37.217748 -0.000000 -0.000000
RightUpLeg -41.937664 -24.059753 15.036972
RightLeg 59.681088 -0.000000 -0.000000
RightFoot -44.546113 -21.434179 22.193272
RightToeBase 23.707075 -0.000000 -0.000000
506
root 30.336490 30.277297 -19.230585 -170.640067 -0.167501 -167.255670
Spine 0.758015 2.179747 18.212021
Head -1.221862 2.674172 -3.264739
LeftShoulder -10.891902 -22.938772 -5.392908
LeftArm -20.690886 30.577425 -86.245099
LeftForeArm 19.285494 -0.000000 27.015973
LeftHand -2.055177 -0.000000 -3.414424
LeftHandThumb1 -26.253704 0.000000 33.147579
RightShoulder -2.093116 -12.722715 2.150256
RightArm 19.554568 -23.757750 55.448032
RightForeArm -29.575581 0.000000 40.447849
RightHand 0.152645 -0.000000 7.589015
RightHandThumb1 -24.326973 -0.000000 -32.862282
LeftUpLeg -5.548927 28.975464 42.131081
LeftLeg -0.957092 -0.000000 0.000000
LeftFoot -12.067635 14.703282 -16.030974
LeftToeBase 37.107221 -0.000000 -0.000000
RightUpLeg -41.591690 -24.118459 14.752586
RightLeg 58.965957 -0.000000 -0.000000
RightFoot -44.012127 -21.368899 22.185860
RightToeBase 23.727391 -0.000000 -0.000000
507
root 30.192492 30.378676 -19.214519 -170.656129 -0.115525 -167.325235
Spine 0.759561 2.150200 18.149000
Head -1.342496 2.655842 -3.264556
LeftShoulder -10.941276 -22.950709 -5.379213
LeftArm -20.661639 30.569544 -86.280472
LeftForeArm 19.267817 -0.000000 26.945656
LeftHand -2.019528 -0.000000 -3.501525
LeftHandThumb1 -26.253704 0.000000 33.147579
RightShoulder -2.067055 -12.652438 2.150389
RightArm 19.536120 -23.824159 55.535833
RightForeArm -29.373953 -0.000000 40.192969
RightHand 0.064245 0.000000 7.700152
RightHandThumb1 -24.326973 -0.000000 -32.862282
LeftUpLeg -5.612101 28.864227 41.761419
LeftLeg -0.857136 -0.000000 0.000000
LeftFoot -12.189604 14.838055 -15.976049
LeftToeBase 36.958869 -0.000000 -0.000000
RightUpLeg -41.243134 -24.132757 14.424510
RightLeg 58.246853 -0.000000 -0.000000
RightFoot -43.493464 -21.342720 22.171886
RightToeBase 23.786659 -0.000000 -0.000000
508
root 30.045023 30.481756 -19.201082 -170.684114 -0.077092 -167.386437
Spine 0.779399 2.137905 18.110254
Head -1.471497 2.622143 -3.276641
LeftShoulder -10.964685 -22.967857 -5.344860
LeftArm -20.624846 30.580456 -86.370104
LeftForeArm 19.144184 -0.000000 26.791975
LeftHand -1.863072 -0.000000 -3.642537
LeftHandThumb1 -26.253704 0.000000 33.147579
RightShoulder -2.067926 -12.558408 2.150496
RightArm 19.460461 -23.775487 55.686705
RightForeArm -29.660284 -0.000000 39.960929
RightHand 0.093179 -0.000000 7.853745
RightHandThumb1 -24.326973 -0.000000 -32.862282
LeftUpLeg -5.694319 28.771900 41.389701
LeftLeg -0.727122 -0.000000 0.000000
LeftFoot -12.321241 14.956807 -15.927114
LeftToeBase 36.792691 -0.000000 -0.000000
RightUpLeg -40.864461 -24.185106 14.104940
RightLeg 57.487162 -0.000000 -0.000000
RightFoot -42.958054 -21.365003 22.089542
RightToeBase 23.907422 -0.000000 -0.000000
